HIERARCHY
ROOT joint_Root
{
	OFFSET 0.0 0.0 0.0
	CHANNELS 6 Xposition Yposition Zposition Zrotation Xrotation Yrotation 
	JOINT Hips
	{
		OFFSET -0.726466 93.3139 -2.00062
		CHANNELS 6 Xposition Yposition Zposition Zrotation Xrotation Yrotation 
		JOINT Spine
		{
			OFFSET 15.7357 0.0 0.0
			CHANNELS 6 Xposition Yposition Zposition Zrotation Xrotation Yrotation 
			JOINT Chest
			{
				OFFSET 8.98455 -0.406207 0.0
				CHANNELS 6 Xposition Yposition Zposition Zrotation Xrotation Yrotation 
				JOINT Neck
				{
					OFFSET 16.3773 0.0 0.0
					CHANNELS 6 Xposition Yposition Zposition Zrotation Xrotation Yrotation 
					JOINT Head
					{
						OFFSET 6.45672 0.0 0.0
						CHANNELS 6 Xposition Yposition Zposition Zrotation Xrotation Yrotation 
						End Site
						{
							OFFSET 0.0 0.0 0.0
						}
					}
				}
				JOINT Shoulder_L
				{
					OFFSET 12.9942 -0.242716 4.98039
					CHANNELS 6 Xposition Yposition Zposition Zrotation Xrotation Yrotation 
					JOINT UpperArm_L
					{
						OFFSET 5.34809 0.0 0.0
						CHANNELS 6 Xposition Yposition Zposition Zrotation Xrotation Yrotation 
						JOINT LowerArm_L
						{
							OFFSET 24.3286 1.87007e-05 0.0
							CHANNELS 6 Xposition Yposition Zposition Zrotation Xrotation Yrotation 
							JOINT Hand_L
							{
								OFFSET 22.2916 0.0 0.0
								CHANNELS 6 Xposition Yposition Zposition Zrotation Xrotation Yrotation 
								End Site
								{
									OFFSET 0.0 0.0 0.0
								}
							}
						}
					}
				}
				JOINT Shoulder_R
				{
					OFFSET 12.9945 -0.242716 -4.98039
					CHANNELS 6 Xposition Yposition Zposition Zrotation Xrotation Yrotation 
					JOINT UpperArm_R
					{
						OFFSET -5.34813 0.0 0.0
						CHANNELS 6 Xposition Yposition Zposition Zrotation Xrotation Yrotation 
						JOINT LowerArm_R
						{
							OFFSET -24.3289 0.000322201 0.0
							CHANNELS 6 Xposition Yposition Zposition Zrotation Xrotation Yrotation 
							JOINT Hand_R
							{
								OFFSET -22.2915 -0.000108084 0.0
								CHANNELS 6 Xposition Yposition Zposition Zrotation Xrotation Yrotation 
								End Site
								{
									OFFSET 0.0 0.0 0.0
								}
							}
						}
					}
				}
			}
		}
		JOINT UpperLeg_L
		{
			OFFSET -2.19248 -6.46944 0.0
			CHANNELS 6 Xposition Yposition Zposition Zrotation Xrotation Yrotation 
			JOINT LowerLeg_L
			{
				OFFSET 39.0811 0.0 -1.23785e-05
				CHANNELS 6 Xposition Yposition Zposition Zrotation Xrotation Yrotation 
				JOINT Foot_L
				{
					OFFSET 40.9854 0.0 -1.26872e-05
					CHANNELS 6 Xposition Yposition Zposition Zrotation Xrotation Yrotation 
					JOINT Toes_L
					{
						OFFSET 11.7543 0.0 0.0
						CHANNELS 6 Xposition Yposition Zposition Zrotation Xrotation Yrotation 
						End Site
						{
							OFFSET 0.0 0.0 0.0
						}
					}
				}
			}
		}
		JOINT UpperLeg_R
		{
			OFFSET -2.19251 6.46944 0.0
			CHANNELS 6 Xposition Yposition Zposition Zrotation Xrotation Yrotation 
			JOINT LowerLeg_R
			{
				OFFSET -39.0811 -0.00228153 -0.0401928
				CHANNELS 6 Xposition Yposition Zposition Zrotation Xrotation Yrotation 
				JOINT Foot_R
				{
					OFFSET -40.9854 0.0 0.0
					CHANNELS 6 Xposition Yposition Zposition Zrotation Xrotation Yrotation 
					JOINT Toes_R
					{
						OFFSET -11.7543 0.0 0.0
						CHANNELS 6 Xposition Yposition Zposition Zrotation Xrotation Yrotation 
						End Site
						{
							OFFSET 0.0 0.0 0.0
						}
					}
				}
			}
		}
	}
}
MOTION
Frames:	5
Frame Time:	0.0333333
0.000000 0.000000 0.000000 0.000000 0.000000 -0.000000 133.377000 91.318400 -122.115000 88.461500 -1.378760 3.115130 15.735700 0.000005 -0.000001 91.562800 81.308800 -90.080100 8.984550 -0.406207 -0.000000 9.605370 0.495045 2.921430 16.377300 -0.000001 -0.000001 7.631150 -2.686870 1.199940 6.456720 -0.000001 -0.000000 1.941300 -3.268600 -5.016320 12.994200 -0.242716 4.980390 -88.992600 -2.533350 -68.305200 5.348090 -0.000007 -0.000001 -67.086100 30.329300 -3.770310 24.328600 0.000019 0.000005 5.072540 6.032690 -40.184500 22.291600 -0.000001 0.000005 3.181620 5.524700 -7.563220 12.994500 -0.242716 -4.980390 88.875500 2.730380 -67.607500 -5.348130 -0.000001 -0.000004 -53.010400 33.558300 -27.770100 -24.328900 0.000322 -0.000009 4.744360 6.605820 -35.814500 -22.291500 -0.000108 -0.000004 3.730190 5.509820 -6.934160 -2.192480 -6.469440 -0.000000 -174.291000 -10.751000 -20.903100 39.081100 -0.000007 -0.000012 0.133203 -0.069999 62.276200 40.985400 -0.000006 -0.000013 2.946610 -0.830299 -56.186800 11.754300 -0.000000 0.000003 -0.004095 -0.052434 -18.709700 -2.192510 6.469440 -0.000001 -178.940000 12.490100 171.317000 -39.081100 -0.002282 -0.040193 0.032096 -0.045539 32.309600 -40.985400 0.000008 0.000006 5.505250 -0.657477 -67.636100 -11.754300 -0.000006 -0.000006 -0.007166 -0.081080 -19.874000
0.000000 0.000000 0.000000 0.000000 0.000000 -0.000000 133.357000 91.777500 -119.431000 88.933200 -2.412950 3.190330 15.735700 0.000005 -0.000001 95.017200 81.211900 -93.901700 8.984550 -0.406207 -0.000000 9.731250 1.547000 2.097760 16.377300 -0.000001 -0.000001 7.549460 -2.461130 1.109660 6.456720 -0.000001 -0.000000 1.779440 -3.910100 -4.937460 12.994200 -0.242716 4.980390 -88.995500 -2.425300 -67.492600 5.348090 -0.000007 -0.000001 -68.405400 29.054700 -1.146800 24.328600 0.000019 0.000005 4.973790 6.154040 -39.070200 22.291600 -0.000001 0.000005 2.986330 5.519370 -7.334400 12.994500 -0.242716 -4.980390 89.069700 2.330410 -68.230800 -5.348130 -0.000001 -0.000004 -50.934500 32.462100 -31.816900 -24.328900 0.000322 -0.000009 4.793150 6.277620 -37.489000 -22.291500 -0.000108 -0.000004 4.022710 5.511940 -7.022100 -2.192480 -6.469440 -0.000000 -175.862000 -12.531100 -22.688900 39.081100 -0.000007 -0.000012 0.092715 -0.067144 54.086400 40.985400 -0.000006 -0.000013 2.621740 -1.865240 -57.425700 11.754300 -0.000000 0.000003 -0.004266 -0.054183 -18.780900 -2.192510 6.469440 -0.000001 -179.980000 12.228700 175.124000 -39.081100 -0.002282 -0.040193 0.020963 -0.032139 28.787200 -40.985400 0.000008 0.000006 5.226870 0.221571 -67.631700 -11.754300 -0.000006 -0.000006 -0.008309 -0.090534 -20.260000
0.000000 0.000000 0.000000 0.000000 0.000000 -0.000000 133.319000 91.881900 -116.861000 89.004500 -3.353790 3.026190 15.735700 0.000005 -0.000001 97.912400 81.097500 -96.988400 8.984550 -0.406207 -0.000000 9.856780 2.452750 1.635360 16.377300 -0.000001 -0.000001 7.284410 -2.142030 0.863226 6.456720 -0.000001 -0.000000 1.467610 -4.510590 -4.851390 12.994200 -0.242716 4.980390 -89.111700 -2.048900 -66.554200 5.348090 -0.000007 -0.000001 -69.130100 27.906300 0.899319 24.328600 0.000019 0.000005 4.967050 6.402690 -37.929800 22.291600 -0.000001 0.000005 2.874160 5.513400 -7.083500 12.994500 -0.242716 -4.980390 89.232400 1.987090 -68.875700 -5.348130 -0.000001 -0.000004 -48.576600 31.026700 -35.718400 -24.328900 0.000322 -0.000009 4.667390 5.728410 -39.289700 -22.291500 -0.000108 -0.000004 4.361770 5.511370 -6.998550 -2.192480 -6.469440 -0.000000 -176.807000 -13.435900 -23.574900 39.081100 -0.000007 -0.000012 0.053670 -0.057029 43.260400 40.985400 -0.000006 -0.000013 2.470000 -2.862810 -57.052000 11.754300 -0.000000 0.000003 -0.004730 -0.058839 -18.970600 -2.192510 6.469440 -0.000001 179.434000 12.031700 178.156000 -39.081100 -0.002282 -0.040193 0.012071 -0.017836 26.161400 -40.985400 0.000008 0.000006 4.914810 1.088890 -68.084700 -11.754300 -0.000006 -0.000006 -0.008166 -0.089381 -20.212900
0.000000 0.000000 0.000000 0.000000 0.000000 -0.000000 133.294000 91.571400 -114.219000 88.514800 -4.254730 2.738970 15.735700 0.000005 -0.000001 101.037000 80.979600 -100.132000 8.984550 -0.406207 -0.000000 9.927480 3.449300 1.510270 16.377300 -0.000001 -0.000001 6.991350 -1.912180 0.689640 6.456720 -0.000001 -0.000000 1.143220 -5.015430 -4.737880 12.994200 -0.242716 4.980390 -89.198900 -1.773290 -65.681000 5.348090 -0.000007 -0.000001 -69.663000 26.766100 2.259850 24.328600 0.000019 0.000005 4.790330 6.586910 -36.148800 22.291600 -0.000001 0.000005 2.891250 5.511310 -6.997730 12.994500 -0.242716 -4.980390 89.339900 1.756210 -69.398500 -5.348130 -0.000001 -0.000004 -46.317700 29.390600 -38.915700 -24.328900 0.000322 -0.000009 4.422990 5.065870 -41.226200 -22.291500 -0.000108 -0.000004 4.649010 5.509320 -6.913020 -2.192480 -6.469440 -0.000000 -176.821000 -13.478700 -23.672500 39.081100 -0.000007 -0.000012 0.024914 -0.041353 31.067100 40.985400 -0.000006 -0.000013 2.367740 -3.573220 -55.698600 11.754300 -0.000000 0.000003 -0.005374 -0.065052 -19.223900 -2.192510 6.469440 -0.000001 179.405000 11.763100 -179.487000 -39.081100 -0.002282 -0.040193 0.005186 -0.004058 24.787700 -40.985400 0.000008 0.000006 4.901520 1.664340 -69.170700 -11.754300 -0.000006 -0.000006 -0.008674 -0.093446 -20.379000
0.000000 0.000000 0.000000 0.000000 0.000000 -0.000000 133.302000 90.912800 -111.326000 87.449000 -5.264570 2.446310 15.735700 0.000005 -0.000001 104.505000 80.828300 -103.419000 8.984550 -0.406207 -0.000000 9.973350 4.586350 1.770380 16.377300 -0.000001 -0.000001 6.638930 -1.795680 0.583777 6.456720 -0.000001 -0.000000 0.858337 -5.465390 -4.689340 12.994200 -0.242716 4.980390 -89.245600 -1.618440 -65.003600 5.348090 -0.000007 -0.000001 -70.308800 25.577800 3.376430 24.328600 0.000019 0.000005 4.505280 6.672390 -34.142700 22.291600 -0.000001 0.000005 3.022370 5.507460 -6.836670 12.994500 -0.242716 -4.980390 89.453100 1.486640 -69.800100 -5.348130 -0.000001 -0.000004 -44.172600 27.806200 -41.450300 -24.328900 0.000322 -0.000009 4.085610 4.397660 -42.978900 -22.291500 -0.000108 -0.000004 4.915120 5.509920 -6.938580 -2.192480 -6.469440 -0.000000 -175.868000 -13.161500 -22.986900 39.081100 -0.000007 -0.000012 0.007050 -0.020715 18.794300 40.985400 -0.000006 -0.000013 2.498560 -3.856050 -55.543800 11.754300 -0.000000 0.000003 -0.004836 -0.059881 -19.013100 -2.192510 6.469440 -0.000001 179.647000 12.006400 -177.244000 -39.081100 -0.002282 -0.040193 -0.006474 0.021775 24.203000 -40.985400 0.000008 0.000006 4.709250 2.924880 -70.872700 -11.754300 -0.000006 -0.000006 -0.008089 -0.088758 -20.187500
